<svg width="38" height="39" viewBox="0 0 38 39" fill="none" xmlns="http://www.w3.org/2000/svg">
<path d="M26.6124 21.5675C26.6465 21.9726 26.596 22.3804 26.4641 22.7651C26.3323 23.1496 26.122 23.5027 25.8466 23.8018C25.5712 24.1008 25.2367 24.3395 24.8643 24.5025C24.4918 24.6656 24.0895 24.7495 23.6829 24.749H12.5004C10.9884 24.749 9.66541 23.51 9.54991 22.0085L8.98291 14.1335C8.85691 12.3905 10.1799 10.9729 11.9334 10.9729H25.4889M29.4999 9H27.6729C26.5389 9 25.6464 9.9765 25.7409 11.1L26.2659 17.4525M22.1499 15.3H9.54991M14.5374 30C14.1893 30 13.8554 29.8617 13.6093 29.6156C13.3632 29.3695 13.2249 29.0356 13.2249 28.6875C13.2249 28.3394 13.3632 28.0055 13.6093 27.7594C13.8554 27.5133 14.1893 27.375 14.5374 27.375C14.8855 27.375 15.2194 27.5133 15.4655 27.7594C15.7117 28.0055 15.8499 28.3394 15.8499 28.6875C15.8499 29.0356 15.7117 29.3695 15.4655 29.6156C15.2194 29.8617 14.8855 30 14.5374 30ZM22.9374 30C22.5893 30 22.2554 29.8617 22.0093 29.6156C21.7632 29.3695 21.6249 29.0356 21.6249 28.6875C21.6249 28.3394 21.7632 28.0055 22.0093 27.7594C22.2554 27.5133 22.5893 27.375 22.9374 27.375C23.2855 27.375 23.6194 27.5133 23.8655 27.7594C24.1117 28.0055 24.2499 28.3394 24.2499 28.6875C24.2499 29.0356 24.1117 29.3695 23.8655 29.6156C23.6194 29.8617 23.2855 30 22.9374 30Z" stroke="#6B6B6B" stroke-miterlimit="10" stroke-linecap="round" stroke-linejoin="round"/>
</svg>
