<svg width="25" height="24" viewBox="0 0 25 24" fill="none" xmlns="http://www.w3.org/2000/svg">
<rect x="0.5" width="24" height="24" rx="4" fill="#ACC294"/>
<path d="M19.2156 5.29993C19.3221 5.21256 19.3987 5.09287 19.5 5C19.4438 5.40518 19.3412 5.8021 19.2503 6.20006C18.9234 7.53942 18.5078 8.85505 17.9903 10.1256C17.5361 11.2366 17.0007 12.3128 16.3549 13.313C15.666 14.3707 14.8465 15.3486 13.8566 16.0998C13.0108 16.7481 12.0345 17.2118 11.0059 17.412C10.5822 17.4945 10.1514 17.5361 9.72056 17.5375C9.39329 17.5361 9.08096 17.4192 8.77934 17.2971C8.53876 17.8553 8.33973 18.4342 8.11409 19C7.98681 18.9979 7.87156 18.9309 7.75208 18.8927C7.42903 18.7647 7.09786 18.6602 6.77871 18.5216C7.17546 17.4801 7.55532 16.43 8.01506 15.417C8.53486 14.2696 9.15953 13.1658 9.95562 12.2086C10.6537 11.3666 11.479 10.6429 12.3933 10.0792C13.5059 9.39024 14.7335 8.92521 15.9883 8.63045C15.4036 8.62288 14.8241 8.73226 14.2514 8.84714C13.0579 9.0996 11.8985 9.5464 10.8423 10.1896C9.96114 10.7317 9.15628 11.4179 8.48908 12.2351C8.03746 12.7837 7.65143 13.3915 7.32805 14.0333C7.09072 14.4949 6.90566 14.9833 6.72741 15.4727C6.67124 15.4297 6.62027 15.3795 6.57676 15.3228C6.18911 14.8347 5.85924 14.2864 5.66054 13.6818C5.50178 13.194 5.45048 12.6623 5.5534 12.1556C5.73521 11.1874 6.19268 10.2924 6.7891 9.54055C7.4524 8.70887 8.31636 8.06189 9.27479 7.66978C10.0959 7.32548 10.979 7.21335 11.8436 7.05444C12.6614 6.92305 13.478 6.77825 14.2984 6.66577C14.9932 6.5619 15.6877 6.45355 16.3783 6.32044C17.1 6.17598 17.8237 6.01157 18.5081 5.72093C18.7575 5.60949 19.0029 5.47947 19.2156 5.29993Z" fill="white"/>
</svg>
