<svg width="49" height="48" viewBox="0 0 49 48" fill="none" xmlns="http://www.w3.org/2000/svg">
<path d="M14.5 34L16.5 32M25 33C23.7524 33 22.5171 32.7543 21.3645 32.2769C20.2119 31.7994 19.1646 31.0997 18.2825 30.2175C17.4003 29.3354 16.7006 28.2881 16.2231 27.1355C15.7457 25.9829 15.5 24.7476 15.5 23.5C15.5 22.2524 15.7457 21.0171 16.2231 19.8645C16.7006 18.7119 17.4003 17.6646 18.2825 16.7825C19.1646 15.9003 20.2119 15.2006 21.3645 14.7231C22.5171 14.2457 23.7524 14 25 14C27.5196 14 29.9359 15.0009 31.7175 16.7825C33.4991 18.5641 34.5 20.9804 34.5 23.5C34.5 26.0196 33.4991 28.4359 31.7175 30.2175C29.9359 31.9991 27.5196 33 25 33Z" stroke="#878787" stroke-linecap="round" stroke-linejoin="round"/>
</svg>
