<svg width="13" height="12" viewBox="0 0 13 12" fill="none" xmlns="http://www.w3.org/2000/svg">
<path d="M12.4686 4.53412C12.3896 4.28056 12.1741 4.10105 11.9201 4.07707L8.45606 3.7489L7.08705 0.404315C6.98598 0.158592 6.75599 0 6.50001 0C6.24402 0 6.01395 0.158592 5.91351 0.404315L4.5445 3.7489L1.07991 4.07707C0.82594 4.10152 0.610879 4.28104 0.53141 4.53412C0.452399 4.78768 0.525368 5.06579 0.717448 5.24157L3.33599 7.63756L2.56391 11.186C2.50742 11.4469 2.60447 11.7167 2.81193 11.8732C2.92345 11.9578 3.05446 12 3.18593 12C3.29891 12 3.41198 11.9687 3.51296 11.9056L6.50001 10.0419L9.4865 11.9056C9.70559 12.0422 9.98108 12.0297 10.1881 11.8732C10.3955 11.7167 10.4926 11.4469 10.4361 11.186L9.66403 7.63756L12.2826 5.24157C12.4746 5.06579 12.5476 4.78825 12.4686 4.53412Z" fill="#DD794F"/>
</svg>
